{
    "asset" : {
        "generator" : "Khronos glTF Blender I/O v1.6.16",
        "version" : "2.0"
    },
    "scene" : 0,
    "scenes" : [
        {
            "name" : "Scene",
            "nodes" : [
                0
            ]
        }
    ],
    "nodes" : [
        {
            "mesh" : 0,
            "name" : "Sphere"
        }
    ],
    "meshes" : [
        {
            "name" : "Sphere.001",
            "primitives" : [
                {
                    "attributes" : {
                        "POSITION" : 0,
                        "NORMAL" : 1
                    },
                    "indices" : 2
                }
            ]
        }
    ],
    "accessors" : [
        {
            "bufferView" : 0,
            "componentType" : 5126,
            "count" : 11904,
            "max" : [
                0.9872310161590576,
                0.9975767135620117,
                0.9872307181358337
            ],
            "min" : [
                -0.9872304201126099,
                -0.9975767135620117,
                -0.9872304201126099
            ],
            "type" : "VEC3"
        },
        {
            "bufferView" : 1,
            "componentType" : 5126,
            "count" : 11904,
            "type" : "VEC3"
        },
        {
            "bufferView" : 2,
            "componentType" : 5123,
            "count" : 11904,
            "type" : "SCALAR"
        }
    ],
    "bufferViews" : [
        {
            "buffer" : 0,
            "byteLength" : 142848,
            "byteOffset" : 0
        },
        {
            "buffer" : 0,
            "byteLength" : 142848,
            "byteOffset" : 142848
        },
        {
            "buffer" : 0,
            "byteLength" : 23808,
            "byteOffset" : 285696
        }
    ],
    "buffers" : [
        {
            "byteLength" : 309504,
            "uri" : "data:application/octet-stream;base64,"
        }
    ]
}
