{
    "asset" : {
        "generator" : "Khronos glTF Blender I/O v1.6.16",
        "version" : "2.0"
    },
    "scene" : 0,
    "scenes" : [
        {
            "name" : "Scene",
            "nodes" : [
                0
            ]
        }
    ],
    "nodes" : [
        {
            "mesh" : 0,
            "name" : "Torus"
        }
    ],
    "meshes" : [
        {
            "name" : "Torus",
            "primitives" : [
                {
                    "attributes" : {
                        "POSITION" : 0,
                        "NORMAL" : 1
                    },
                    "indices" : 2
                }
            ]
        }
    ],
    "accessors" : [
        {
            "bufferView" : 0,
            "componentType" : 5126,
            "count" : 55296,
            "max" : [
                1.2353026866912842,
                0.23883549869060516,
                1.2353025674819946
            ],
            "min" : [
                -1.2353029251098633,
                -0.23883549869060516,
                -1.2353026866912842
            ],
            "type" : "VEC3"
        },
        {
            "bufferView" : 1,
            "componentType" : 5126,
            "count" : 55296,
            "type" : "VEC3"
        },
        {
            "bufferView" : 2,
            "componentType" : 5123,
            "count" : 55296,
            "type" : "SCALAR"
        }
    ],
    "bufferViews" : [
        {
            "buffer" : 0,
            "byteLength" : 663552,
            "byteOffset" : 0
        },
        {
            "buffer" : 0,
            "byteLength" : 663552,
            "byteOffset" : 663552
        },
        {
            "buffer" : 0,
            "byteLength" : 110592,
            "byteOffset" : 1327104
        }
    ],
    "buffers" : [
        {
            "byteLength" : 1437696,
            "uri" : "data:application/octet-stream;base64,"
        }
    ]
}
